<svg xmlns="http://www.w3.org/2000/svg" viewBox="0 0 508.16 292.6">
  <defs>
    <style>
      .cls-2{fill:#081e46}
    </style>
  </defs>
  <path fill="#6ebab9" d="M414.09 216.4c12.32-21.36 18.79-45.73 19.24-72.5l.09-5.38h-25.76v5.29a127.51 127.51 0 0 1-3.94 31.75 119.61 119.61 0 0 1-7.83 21.66L332 130.91c5.51-3.84 10.9-7.68 16.06-11.44a139.65 139.65 0 0 0 18.53-16A73.78 73.78 0 0 0 379.66 85a48.78 48.78 0 0 0 5-21.69A47.56 47.56 0 0 0 380 42.46 49.08 49.08 0 0 0 367.16 26a62.53 62.53 0 0 0-18.9-10.69 68.53 68.53 0 0 0-23.4-3.91 72.27 72.27 0 0 0-25.51 4.45 63 63 0 0 0-20.56 12.35 60.78 60.78 0 0 0-13.69 18.16 50.24 50.24 0 0 0-5.17 22.38 49 49 0 0 0 2.1 14 63.51 63.51 0 0 0 6.53 14.41 150.17 150.17 0 0 0 11.2 15.85 297.3 297.3 0 0 0 12.35 14.43 270.15 270.15 0 0 0-16 11.92 130.94 130.94 0 0 0-17.86 17.33 77.54 77.54 0 0 0-12.51 20.6 63.55 63.55 0 0 0-4.53 20.2 33.47 33.47 0 0 1 3.11-2.83 38.94 38.94 0 0 1 12.6-6.65 47.62 47.62 0 0 1 14.52-2.17h.2v-.05a57 57 0 0 1 9.26-15.06 107.62 107.62 0 0 1 14.21-13.88c4.41-3.6 9.21-7.24 14.3-10.86l71.08 74.53a85.6 85.6 0 0 1-22.89 18.59 66.66 66.66 0 0 1-32.74 8.07 74.81 74.81 0 0 1-11.49-.9c0 .65.05 1.3.05 2a31.52 31.52 0 0 1-8.3 22.05 102.61 102.61 0 0 0 17.69 1.52 95.12 95.12 0 0 0 44.25-10.36 114 114 0 0 0 30.6-23.14l28.8 30.08h37.67zM301.36 97.77a123 123 0 0 1-9.53-13 35 35 0 0 1-4.19-8.88 29 29 0 0 1-1-7.53 27.63 27.63 0 0 1 2.75-12.13A31.81 31.81 0 0 1 297.17 46a40.42 40.42 0 0 1 12.14-7.27A41.46 41.46 0 0 1 324.52 36c10.21 0 18.27 2.66 24.66 8.14a24.83 24.83 0 0 1 9.12 19.81c0 9-3.92 17-12 24.37s-18.87 15.58-31.94 24.28a390.2 390.2 0 0 1-13-14.83z"/>
  <path d="M51.47 252.92a23.82 23.82 0 0 1-3.67 1.33 13.38 13.38 0 0 1-3.54.54 6.75 6.75 0 0 1-5.35-2.14 8.84 8.84 0 0 1-1.87-6v-75.1H19.13v81.39q0 8.28 4.61 12.76t13 4.47a46.28 46.28 0 0 0 8.69-.93 34.43 34.43 0 0 0 8.42-2.67zm10.16-81.39v17.77h17.9v-17.77zm0 27.53v70h17.9v-70zm73.1 29.8 26.06-29.67h-19.11l-28.07 31.54v-59.2H95.7v97.56h17.91v-20.85l9.62-9.49 20.32 30.34h19.11zM288 231.34zm-2.58-.94 1.32.47 1.26.47-1.26-.48-1.32-.46z" class="cls-2"/>
  <path d="M301.51 248.24q0 10.29-7.62 16.24a23.83 23.83 0 0 1-3.22 2.11q-7 3.82-17.49 3.83a54.18 54.18 0 0 1-17.24-2.8 42.25 42.25 0 0 1-14.44-8l6.68-11.23a57.33 57.33 0 0 0 12.5 6.88 33.4 33.4 0 0 0 11.24 2.32h.85c3.57 0 6.37-.67 8.42-2a6.46 6.46 0 0 0 3.08-5.75 5.74 5.74 0 0 0-3.61-5.48 79.87 79.87 0 0 0-11.76-4 159.8 159.8 0 0 1-11.63-3.6 30 30 0 0 1-7.75-3.95 15.77 15.77 0 0 1-1.77-1.54 12.43 12.43 0 0 1-2.5-3.54 15.1 15.1 0 0 1-1.31-5.81v-1.07a21.8 21.8 0 0 1 2.07-9.62 21 21 0 0 1 5.81-7.28 26.73 26.73 0 0 1 8.76-4.61 34.31 34.31 0 0 1 8.15-1.52c.9-.06 1.81-.09 2.74-.09a47 47 0 0 1 14.74 2.27 36.19 36.19 0 0 1 12.62 7.35l-7.21 10.83a42.26 42.26 0 0 0-10.36-5.88 28.24 28.24 0 0 0-9.95-1.87 19.11 19.11 0 0 0-2.18.12 13 13 0 0 0-5.44 1.75 6.51 6.51 0 0 0-3.08 6 5.85 5.85 0 0 0 .74 3.08 6.55 6.55 0 0 0 2.34 2.14 23.11 23.11 0 0 0 4.21 1.8q2.6.87 6.48 1.8c1.16.3 2.27.6 3.35.9l1.77.51q1.61.47 3.09.93l1.45.47 1.38.47 1.32.47a36.85 36.85 0 0 1 3.59 1.47 29.42 29.42 0 0 1 4.83 2.8 15.22 15.22 0 0 1 4.81 5.55 13.7 13.7 0 0 1 .95 2.59 19.61 19.61 0 0 1 .59 4.96z" class="cls-2"/>
  <path d="m286.74 230.86-1.32-.46 1.32.47 1.26.47zm1.26.48zM90.69 101a42.58 42.58 0 0 0-6.91-12.79 33.83 33.83 0 0 0-11-9 30.64 30.64 0 0 0-14.4-3.38 29.92 29.92 0 0 0-16.91 4.78 43.94 43.94 0 0 0-12.31 12.5V46.36h-10v107.32h9v-14.85A33.48 33.48 0 0 0 40 150.59a31.84 31.84 0 0 0 16.61 4.56A33.25 33.25 0 0 0 71 152a37.2 37.2 0 0 0 11.61-8.53 39.58 39.58 0 0 0 7.72-12.57 42 42 0 0 0 2.79-15.29A45.34 45.34 0 0 0 90.69 101zm-10 26a33.22 33.22 0 0 1-5.88 9.86 28.14 28.14 0 0 1-9 6.9 25.69 25.69 0 0 1-11.54 2.58 23.59 23.59 0 0 1-7.94-1.47 34.28 34.28 0 0 1-7.79-4 25.89 25.89 0 0 1-6.25-6 16.29 16.29 0 0 1-3.16-7.42v-23.76a36.41 36.41 0 0 1 4.49-7.27 35.57 35.57 0 0 1 6.1-6.1 28.24 28.24 0 0 1 7.35-4.19 23.27 23.27 0 0 1 8.52-1.55 23.8 23.8 0 0 1 11 2.57 27.42 27.42 0 0 1 8.6 6.91 32.56 32.56 0 0 1 5.65 9.94 34.46 34.46 0 0 1 2 11.61A31.31 31.31 0 0 1 80.69 127zm29.03-80.64v14.7h10v-14.7zm0 30.73v76.59h10V77.09zm65.86 64.83a33.8 33.8 0 0 1-4.11 2 18.83 18.83 0 0 1-7.5 1.4 10.18 10.18 0 0 1-6.32-2q-2.66-2-2.94-6.24V85h17.64v-7.91h-17.64V51.21h-10v25.88h-10.58V85h10.58v54.84a15 15 0 0 0 1.32 6.47 13.43 13.43 0 0 0 3.53 4.63 14.53 14.53 0 0 0 5.15 2.72 21.26 21.26 0 0 0 6.17.88 28.59 28.59 0 0 0 5.88-.59 45.34 45.34 0 0 0 5-1.32q2.2-.74 3.9-1.47c1.12-.49 2-.88 2.57-1.18zM243.65 124a16.3 16.3 0 0 0-5.66-5.73 40.86 40.86 0 0 0-9.34-4.12q-5.58-1.75-12.94-3.53-5.15-1.17-8.74-2.28a27.27 27.27 0 0 1-6-2.49 8.82 8.82 0 0 1-3.38-3.31 10.59 10.59 0 0 1-1-5 13.29 13.29 0 0 1 1.47-6.4 12.7 12.7 0 0 1 4.05-4.48 17.52 17.52 0 0 1 5.95-2.57 31.47 31.47 0 0 1 7.35-.81 37.15 37.15 0 0 1 12.72 2.2 26.93 26.93 0 0 1 10.36 6.62l4.85-5.88a31.61 31.61 0 0 0-11.61-7.57 43.07 43.07 0 0 0-16-2.87 40.65 40.65 0 0 0-11.09 1.47 28 28 0 0 0-9.12 4.34 20.55 20.55 0 0 0-6.17 7.28 21.77 21.77 0 0 0-2.3 10.13 16.51 16.51 0 0 0 1.54 7.57 13.23 13.23 0 0 0 4.71 5.07 34.54 34.54 0 0 0 8 3.68q4.84 1.62 11.46 3.23 5.74 1.32 10.07 2.57a34.18 34.18 0 0 1 7.21 2.87 12.75 12.75 0 0 1 4.33 3.75 9.24 9.24 0 0 1 1.47 5.37 12.11 12.11 0 0 1-5.51 10.65q-5.51 3.75-14.77 3.75a38.71 38.71 0 0 1-14.34-2.64 49.88 49.88 0 0 1-13.15-7.94l-4.56 6.76a41.85 41.85 0 0 0 14.7 8.53 53.3 53.3 0 0 0 17.49 2.94q13.68 0 21.76-6.18t8.09-16.76a16.56 16.56 0 0 0-1.9-8.22zm-10.37 96.17c-.34-.91-.72-1.79-1.13-2.65a33 33 0 0 0-6.08-8.84 35.37 35.37 0 0 0-11.5-7.88 37.93 37.93 0 0 0-15.3-2.94 38.91 38.91 0 0 0-15.43 2.94 35.14 35.14 0 0 0-11.7 7.95 34.6 34.6 0 0 0-7.35 11.62 39.06 39.06 0 0 0-2.53 14.1 36.87 36.87 0 0 0 2.6 13.77 34.41 34.41 0 0 0 19 19.31 39 39 0 0 0 15.24 2.87q11.76 0 20.25-5.14a31.31 31.31 0 0 0 12.36-13.17l-15.37-4.27a13.82 13.82 0 0 1-6.48 6.88 20.65 20.65 0 0 1-10.09 2.61 18.86 18.86 0 0 1-6.68-1.21 18 18 0 0 1-5.75-3.47 18.27 18.27 0 0 1-4.14-5.48 20.84 20.84 0 0 1-2-7.35h54.13a14.79 14.79 0 0 0 .33-2.67c0-.65 0-1.32.05-2v-1.34a38.26 38.26 0 0 0-2.43-13.64zm-52.32 8a19.26 19.26 0 0 1 1.81-7.08 18.38 18.38 0 0 1 3.94-5.48 18.47 18.47 0 0 1 24.79-.07 18.62 18.62 0 0 1 5.81 12.63z" class="cls-2"/>
</svg>
